#N canvas 633 0 638 628 12;
#X obj 46 57 inlet;
#X obj 46 516 outlet~;
#X text 98 510 Envelope output;
#X text 98 529 Range 0 ~ 1;
#X obj 46 131 bng 15 250 50 0 empty empty empty 17 7 0 10 -262144 -1
-1;
#X obj 266 349 delay;
#X obj 46 399 sig~ 1;
#X obj 166 445 line~;
#X floatatom 206 42 5 0 100000 0 - - -;
#X floatatom 206 69 5 0 100000 0 - - -;
#X floatatom 206 96 5 0 100 0 - - -;
#X floatatom 206 123 5 0 100000 0 - - -;
#X text 245 42 Attack (ms);
#X text 245 69 Decay (ms);
#X text 245 96 Sustain (%);
#X text 245 123 Release (ms);
#X obj 166 399 pack 1 0;
#X text 165 379 Attack;
#X text 265 329 Decay;
#X obj 266 399 pack 1 0;
#X obj 329 247 / 100;
#X msg 266 233 stop;
#X text 27 18 1 to attack \, 0 to release, f 12;
#X obj 46 83 tgl 15 0 empty empty empty 17 7 0 10 -262144 -1 -1 0 1
;
#X obj 91 131 bng 15 250 50 0 empty empty empty 17 7 0 10 -262144 -1
-1;
#X obj 46 104 select 0;
#X obj 376 399 pack 0 0;
#X text 374 379 Release;
#X obj 329 221 ctrlbound 0 100;
#X obj 138 40 moses 0;
#X obj 138 67 moses 0;
#X obj 138 121 moses 0;
#X obj 266 374 f;
#X obj 347 44 inlet;
#X obj 397 44 inlet;
#X obj 347 70 ctrlbound 0 100000;
#X obj 397 100 ctrlbound 0 100000;
#X obj 447 44 inlet;
#X obj 497 44 inlet;
#X obj 497 70 ctrlbound 0 100000;
#X text 344 24 A;
#X text 394 24 D;
#X text 444 24 S;
#X text 494 24 R;
#X obj 447 130 ctrlbound 0 100;
#X obj 46 479 *~;
#X text 163 226 Any new command overwrites delay, f 16;
#X obj 91 192 t b b;
#X connect 0 0 23 0;
#X connect 4 0 21 0;
#X connect 4 0 26 0;
#X connect 5 0 32 0;
#X connect 6 0 45 0;
#X connect 7 0 45 1;
#X connect 8 0 29 0;
#X connect 9 0 30 0;
#X connect 10 0 28 0;
#X connect 11 0 31 0;
#X connect 16 0 7 0;
#X connect 19 0 7 0;
#X connect 20 0 32 1;
#X connect 21 0 5 0;
#X connect 23 0 25 0;
#X connect 24 0 16 0;
#X connect 24 0 47 0;
#X connect 25 0 4 0;
#X connect 25 1 24 0;
#X connect 26 0 7 0;
#X connect 28 0 20 0;
#X connect 29 1 16 1;
#X connect 29 1 5 1;
#X connect 30 1 19 1;
#X connect 31 1 26 1;
#X connect 32 0 19 0;
#X connect 33 0 35 0;
#X connect 34 0 36 0;
#X connect 35 0 8 0;
#X connect 36 0 9 0;
#X connect 37 0 44 0;
#X connect 38 0 39 0;
#X connect 39 0 11 0;
#X connect 44 0 10 0;
#X connect 45 0 1 0;
#X connect 47 0 5 0;
#X connect 47 1 21 0;
#X coords 0 -1 1 1 140 130 1 200 20;
